<mxfile host="65bd71144e">
    <diagram id="R2lEEEUBdFMjLlhIrx00" name="Page-1">
        <mxGraphModel dx="1777" dy="2010" grid="1" gridSize="10" guides="1" tooltips="1" connect="1" arrows="1" fold="1" page="1" pageScale="1" pageWidth="850" pageHeight="1100" math="0" shadow="0" extFonts="Permanent Marker^https://fonts.googleapis.com/css?family=Permanent+Marker">
            <root>
                <mxCell id="0"/>
                <mxCell id="1" parent="0"/>
                <mxCell id="87" value="Subscription Service Domain Model" style="ellipse;shape=cloud;whiteSpace=wrap;html=1;fillColor=#f5f5f5;fontColor=#CC0066;strokeColor=#000000;strokeWidth=2;labelPosition=center;verticalLabelPosition=top;align=center;verticalAlign=bottom;fontSize=20;fontFamily=Verdana;" parent="1" vertex="1">
                    <mxGeometry x="170" y="10" width="800" height="580" as="geometry"/>
                </mxCell>
                <mxCell id="88" value="Subscription" style="swimlane;fontStyle=0;childLayout=stackLayout;horizontal=1;startSize=30;horizontalStack=0;resizeParent=1;resizeParentMax=0;resizeLast=0;collapsible=1;marginBottom=0;fillColor=#f8cecc;strokeColor=#000000;fontSize=20;strokeWidth=2;fontFamily=Verdana;" parent="1" vertex="1">
                    <mxGeometry x="481.25" y="150" width="237.5" height="90" as="geometry"/>
                </mxCell>
                <mxCell id="89" value="Delivery Time" style="text;strokeColor=#000000;fillColor=none;align=left;verticalAlign=middle;spacingLeft=4;spacingRight=4;overflow=hidden;points=[[0,0.5],[1,0.5]];portConstraint=eastwest;rotatable=0;fontSize=20;strokeWidth=2;fontFamily=Verdana;" parent="88" vertex="1">
                    <mxGeometry y="30" width="237.5" height="30" as="geometry"/>
                </mxCell>
                <mxCell id="100" value="Status" style="text;strokeColor=#000000;fillColor=none;align=left;verticalAlign=middle;spacingLeft=4;spacingRight=4;overflow=hidden;points=[[0,0.5],[1,0.5]];portConstraint=eastwest;rotatable=0;fontSize=20;strokeWidth=2;fontFamily=Verdana;" parent="88" vertex="1">
                    <mxGeometry y="60" width="237.5" height="30" as="geometry"/>
                </mxCell>
                <mxCell id="94" value="Subscription Line Item" style="swimlane;fontStyle=0;childLayout=stackLayout;horizontal=1;startSize=30;horizontalStack=0;resizeParent=1;resizeParentMax=0;resizeLast=0;collapsible=1;marginBottom=0;fillColor=#ffe6cc;strokeColor=#000000;fontSize=20;strokeWidth=2;fontFamily=Verdana;" parent="1" vertex="1">
                    <mxGeometry x="312" y="380" width="225.5" height="60" as="geometry"/>
                </mxCell>
                <mxCell id="116" style="edgeStyle=none;html=1;exitX=1;exitY=0.5;exitDx=0;exitDy=0;entryX=0.5;entryY=0;entryDx=0;entryDy=0;endArrow=block;endFill=1;strokeWidth=2;strokeColor=#000000;fontFamily=Verdana;" parent="1" source="102" target="112" edge="1">
                    <mxGeometry relative="1" as="geometry">
                        <Array as="points">
                            <mxPoint x="758" y="334"/>
                        </Array>
                        <mxPoint x="630" y="334" as="sourcePoint"/>
                        <mxPoint x="693.5" y="420" as="targetPoint"/>
                    </mxGeometry>
                </mxCell>
                <mxCell id="102" value="Has" style="rhombus;whiteSpace=wrap;html=1;fontSize=20;fillColor=none;strokeWidth=2;strokeColor=#000000;fontFamily=Verdana;" parent="1" vertex="1">
                    <mxGeometry x="553" y="294" width="80" height="80" as="geometry"/>
                </mxCell>
                <mxCell id="109" style="edgeStyle=none;html=1;exitX=0.47;exitY=1;exitDx=0;exitDy=0;entryX=0.5;entryY=0;entryDx=0;entryDy=0;fontSize=20;exitPerimeter=0;endArrow=block;endFill=1;strokeWidth=2;strokeColor=#000000;fontFamily=Verdana;" parent="1" source="100" target="102" edge="1">
                    <mxGeometry relative="1" as="geometry"/>
                </mxCell>
                <mxCell id="111" style="edgeStyle=none;html=1;entryX=0.5;entryY=0;entryDx=0;entryDy=0;fontSize=20;endArrow=block;endFill=1;strokeWidth=2;exitX=0;exitY=0.5;exitDx=0;exitDy=0;strokeColor=#000000;fontFamily=Verdana;" parent="1" source="102" target="94" edge="1">
                    <mxGeometry relative="1" as="geometry">
                        <mxPoint x="592" y="370" as="sourcePoint"/>
                        <mxPoint x="602" y="304" as="targetPoint"/>
                        <Array as="points">
                            <mxPoint x="425" y="334"/>
                        </Array>
                    </mxGeometry>
                </mxCell>
                <mxCell id="112" value="Consumer" style="swimlane;fontStyle=0;childLayout=stackLayout;horizontal=1;startSize=30;horizontalStack=0;resizeParent=1;resizeParentMax=0;resizeLast=0;collapsible=1;marginBottom=0;fillColor=#ffe6cc;strokeColor=#000000;fontSize=20;strokeWidth=2;fontFamily=Verdana;" parent="1" vertex="1">
                    <mxGeometry x="675.5" y="380" width="165" height="60" as="geometry"/>
                </mxCell>
                <mxCell id="117" value="Delivery Squad" style="swimlane;fontStyle=0;childLayout=stackLayout;horizontal=1;startSize=30;horizontalStack=0;resizeParent=1;resizeParentMax=0;resizeLast=0;collapsible=1;marginBottom=0;fillColor=#ffe6cc;strokeColor=#000000;fontSize=20;strokeWidth=2;fontFamily=Verdana;" parent="1" vertex="1">
                    <mxGeometry x="510.5" y="460" width="165" height="60" as="geometry"/>
                </mxCell>
                <mxCell id="118" style="edgeStyle=none;html=1;exitX=0.5;exitY=1;exitDx=0;exitDy=0;entryX=0.5;entryY=0;entryDx=0;entryDy=0;endArrow=block;endFill=1;strokeWidth=2;strokeColor=#000000;fontFamily=Verdana;" parent="1" source="102" target="117" edge="1">
                    <mxGeometry relative="1" as="geometry">
                        <Array as="points"/>
                        <mxPoint x="643" y="344" as="sourcePoint"/>
                        <mxPoint x="762.5" y="430" as="targetPoint"/>
                    </mxGeometry>
                </mxCell>
                <mxCell id="131" value="" style="ellipse;shape=cloud;whiteSpace=wrap;html=1;fillColor=#f5f5f5;fontColor=#CC0066;strokeColor=#000000;strokeWidth=2;labelPosition=center;verticalLabelPosition=top;align=center;verticalAlign=bottom;fontSize=20;fontFamily=Verdana;" vertex="1" parent="1">
                    <mxGeometry x="-820" y="10" width="970" height="580" as="geometry"/>
                </mxCell>
                <mxCell id="135" value="Subscription Line Item" style="swimlane;fontStyle=0;childLayout=stackLayout;horizontal=1;startSize=30;horizontalStack=0;resizeParent=1;resizeParentMax=0;resizeLast=0;collapsible=1;marginBottom=0;fillColor=#ffe6cc;strokeColor=#000000;fontSize=20;strokeWidth=2;fontFamily=Verdana;" vertex="1" parent="1">
                    <mxGeometry x="-530" y="380" width="247.5" height="60" as="geometry"/>
                </mxCell>
                <mxCell id="136" style="edgeStyle=none;html=1;exitX=1;exitY=0.5;exitDx=0;exitDy=0;entryX=0.5;entryY=0;entryDx=0;entryDy=0;endArrow=block;endFill=1;strokeWidth=2;strokeColor=#000000;fontFamily=Verdana;" edge="1" parent="1" source="137" target="140">
                    <mxGeometry relative="1" as="geometry">
                        <Array as="points">
                            <mxPoint x="-62" y="334"/>
                        </Array>
                        <mxPoint x="-190" y="334" as="sourcePoint"/>
                        <mxPoint x="-126.5" y="420" as="targetPoint"/>
                    </mxGeometry>
                </mxCell>
                <mxCell id="137" value="Has" style="rhombus;whiteSpace=wrap;html=1;fontSize=20;fillColor=none;strokeWidth=2;strokeColor=#000000;fontFamily=Verdana;" vertex="1" parent="1">
                    <mxGeometry x="-267" y="294" width="80" height="80" as="geometry"/>
                </mxCell>
                <mxCell id="138" style="edgeStyle=none;html=1;exitX=0.47;exitY=1;exitDx=0;exitDy=0;entryX=0.5;entryY=0;entryDx=0;entryDy=0;fontSize=20;exitPerimeter=0;endArrow=block;endFill=1;strokeWidth=2;strokeColor=#000000;fontFamily=Verdana;" edge="1" parent="1" target="137">
                    <mxGeometry relative="1" as="geometry">
                        <mxPoint x="-227.125" y="240" as="sourcePoint"/>
                    </mxGeometry>
                </mxCell>
                <mxCell id="139" style="edgeStyle=none;html=1;entryX=0.5;entryY=0;entryDx=0;entryDy=0;fontSize=20;endArrow=block;endFill=1;strokeWidth=2;exitX=0;exitY=0.5;exitDx=0;exitDy=0;strokeColor=#000000;fontFamily=Verdana;" edge="1" parent="1" source="137" target="135">
                    <mxGeometry relative="1" as="geometry">
                        <mxPoint x="-228" y="370" as="sourcePoint"/>
                        <mxPoint x="-218" y="304" as="targetPoint"/>
                        <Array as="points">
                            <mxPoint x="-406" y="334"/>
                        </Array>
                    </mxGeometry>
                </mxCell>
                <mxCell id="140" value="Consumer" style="swimlane;fontStyle=0;childLayout=stackLayout;horizontal=1;startSize=30;horizontalStack=0;resizeParent=1;resizeParentMax=0;resizeLast=0;collapsible=1;marginBottom=0;fillColor=#ffe6cc;strokeColor=#000000;fontSize=20;strokeWidth=2;fontFamily=Verdana;" vertex="1" parent="1">
                    <mxGeometry x="-144.5" y="380" width="165" height="60" as="geometry"/>
                </mxCell>
                <mxCell id="141" value="Delivery Squad" style="swimlane;fontStyle=0;childLayout=stackLayout;horizontal=1;startSize=30;horizontalStack=0;resizeParent=1;resizeParentMax=0;resizeLast=0;collapsible=1;marginBottom=0;fillColor=#ffe6cc;strokeColor=#000000;fontSize=20;strokeWidth=2;fontFamily=Verdana;" vertex="1" parent="1">
                    <mxGeometry x="-309.5" y="460" width="165" height="60" as="geometry"/>
                </mxCell>
                <mxCell id="142" style="edgeStyle=none;html=1;exitX=0.5;exitY=1;exitDx=0;exitDy=0;entryX=0.5;entryY=0;entryDx=0;entryDy=0;endArrow=block;endFill=1;strokeWidth=2;strokeColor=#000000;fontFamily=Verdana;" edge="1" parent="1" source="137" target="141">
                    <mxGeometry relative="1" as="geometry">
                        <Array as="points"/>
                        <mxPoint x="-177" y="344" as="sourcePoint"/>
                        <mxPoint x="-57.5" y="430" as="targetPoint"/>
                    </mxGeometry>
                </mxCell>
                <mxCell id="143" value="Subscription" style="rounded=0;whiteSpace=wrap;html=1;labelBackgroundColor=none;labelBorderColor=none;spacing=0;fontSize=20;fillColor=#d5e8d4;strokeColor=#82b366;sketch=0;glass=0;fontFamily=Verdana;strokeWidth=2;" vertex="1" parent="1">
                    <mxGeometry x="-327" y="176" width="200" height="60" as="geometry"/>
                </mxCell>
                <mxCell id="146" style="edgeStyle=none;html=1;exitX=0.5;exitY=0;exitDx=0;exitDy=0;entryX=0;entryY=0.5;entryDx=0;entryDy=0;strokeWidth=2;endArrow=block;endFill=1;fontFamily=Verdana;" edge="1" parent="1" source="144" target="145">
                    <mxGeometry relative="1" as="geometry">
                        <Array as="points">
                            <mxPoint x="-610" y="206"/>
                        </Array>
                    </mxGeometry>
                </mxCell>
                <mxCell id="144" value="Admin" style="rounded=0;whiteSpace=wrap;html=1;labelBackgroundColor=none;labelBorderColor=none;spacing=0;fontSize=20;fillColor=#dae8fc;strokeColor=#6c8ebf;sketch=0;glass=0;fontFamily=Verdana;strokeWidth=2;" vertex="1" parent="1">
                    <mxGeometry x="-670" y="236" width="120" height="60" as="geometry"/>
                </mxCell>
                <mxCell id="147" style="edgeStyle=none;html=1;exitX=1;exitY=0.5;exitDx=0;exitDy=0;entryX=0;entryY=0.5;entryDx=0;entryDy=0;strokeWidth=2;endArrow=block;endFill=1;fontFamily=Verdana;" edge="1" parent="1" source="145" target="143">
                    <mxGeometry relative="1" as="geometry"/>
                </mxCell>
                <mxCell id="145" value="Manages" style="rhombus;whiteSpace=wrap;html=1;fontSize=20;fillColor=none;strokeWidth=2;strokeColor=#000000;fontFamily=Verdana;" vertex="1" parent="1">
                    <mxGeometry x="-490" y="156" width="110" height="100" as="geometry"/>
                </mxCell>
            </root>
        </mxGraphModel>
    </diagram>
</mxfile>